<?xml version="1.0" encoding="utf-8"?>
<svg version="1.1" xmlns:xlink="http://www.w3.org/1999/xlink" width="30px" height="24px" xmlns="http://www.w3.org/2000/svg">
  <g transform="matrix(1 0 0 1 -310 -357 )">
    <path d="M 22.6165604860989 1.49999905228084  C 22.6165604860989 0  21.0921704614666 0  21.0921704614666 0  L 8.9047028247729 0  C 8.9047028247729 0  7.3803128001406 0  7.3803128001406 1.49999905228084  L 22.6165604860989 1.49999905228084  Z M 25.6638100232906 6  L 25.6638100232906 4.49999715684251  C 25.6638100232906 2.99999810456168  24.1409505107312 2.99999810456168  24.1409505107312 3  L 5.85745328758123 3  C 5.85745328758123 2.99999810456168  4.33459377502186 2.99999810456168  4.33459377502186 4.49999715684251  L 4.33459377502186 6  L 25.6638100232906 6  Z M 29.8987369290712 8.99999431368501  C 30.2584072662084 7.12499549833398  29.6125311714345 6.8879956480736  28.7095290484093 5.99999620912335  C 27.80958794953 5.1119967701731  27.80958794953 5.1119967701731  27.80958794953 5.1119967701731  L 27.80958794953 7.49999526140418  L 2.18881584878244 7.49999526140418  L 2.18881584878244 5.1119967701731  C 2.18881584878244 5.1119967701731  2.18881584878244 5.1119967701731  1.28734423783021 5.99999620912335  C 0.38587262687798 6.8879956480736  -0.260003467895946 7.12499549833398  0.102727893387036 8.99999431368501  C 0.463928742597104 10.8689931328269  2.21330404194922 21.113986659905  2.4734910943463 22.4999857842125  C 2.75816633991015 24.0209848232253  4.33612428709479 23.9999848364934  4.33612428709479 24  L 25.6653405353635 24  C 25.6653405353635 23.9999848364934  27.2417679704752 24.0209848232253  27.527973728112 22.4999857842125  C 27.7881607805091 21.113986659905  29.5360055677883 10.8689931328269  29.8987369290712 8.99999431368501  Z M 21.1212501908522 11.9999924182467  L 21.1212501908522 14.9954905256515  C 21.1212501908522 15.8264900006151  20.4340502701093 16.4999895750892  19.5861465817094 16.4999895750892  L 10.412257216603 16.4999895750892  C 9.56435352820313 16.4999895750892  8.87715360746026 15.8264900006151  8.87715360746026 14.9954905256515  L 8.87715360746026 11.9999924182467  L 10.4076656803843 11.9999924182467  L 10.4076656803843 14.9999905228084  L 19.5907381179282 14.9999905228084  L 19.5907381179282 11.9999924182467  L 21.1212501908522 11.9999924182467  Z " fill-rule="nonzero" fill="#6c81a0" stroke="none" transform="matrix(1 0 0 1 310 357 )" />
  </g>
</svg>