<?xml version="1.0" encoding="utf-8"?>
<svg version="1.1" xmlns:xlink="http://www.w3.org/1999/xlink" width="26px" height="22px" xmlns="http://www.w3.org/2000/svg">
  <g transform="matrix(1 0 0 1 -953 -173 )">
    <path d="M 26 0.825  C 26 0.36712500000001  25.61 0  25.1318888888889 0  L 0.866666666666667 0  C 0.387111111111109 0  0 0.36712500000001  0 0.825  L 0 4.125  L 26 4.125  L 26 0.825  Z M 1.44444444444444 5.5  L 1.44444444444444 20.075  C 1.44444444444444 21.13375  2.353 22  3.46522222222222 22  L 22.5318888888889 22  C 23.6441111111111 22  24.5541111111111 21.132375  24.5541111111111 20.075  L 24.5541111111111 5.5  L 1.44444444444444 5.5  Z M 8.66666666666667 11  L 8.66666666666667 8.25  L 17.3333333333333 8.25  L 17.3333333333333 11  L 8.66666666666667 11  Z " fill-rule="nonzero" fill="#8ec165" stroke="none" transform="matrix(1 0 0 1 953 173 )" />
  </g>
</svg>