<?xml version="1.0" encoding="utf-8"?>
<svg version="1.1" xmlns:xlink="http://www.w3.org/1999/xlink" width="19px" height="24px" xmlns="http://www.w3.org/2000/svg">
  <g transform="matrix(1 0 0 1 -1169 -173 )">
    <path d="M 19 15.885  C 19 15.69  18.8697142857143 15.4786363636364  18.6281428571429 15.8740909090909  C 17.4840714285714 17.7327272727273  13.8306428571429 19.0936363636364  9.50000000000001 19.0936363636364  C 5.16935714285714 19.0936363636364  1.51592857142857 17.7327272727273  0.370499999999997 15.8740909090909  C 0.12892857142857 15.4786363636364  0 15.69  0 15.8836363636364  C 0 16.08  0 18.6136363636364  0 18.6136363636364  C 0 21.2590909090909  4.25328571428572 24  9.50000000000001 24  C 14.7467142857143 24  19 21.2590909090909  19 18.615  C 19 18.615  19 16.0813636363636  19 15.885  Z M 19 8.895  C 19 8.74363636363635  18.8751428571429 8.55954545454546  18.6430714285714 8.89772727272727  C 17.5166428571429 10.5409090909091  13.8496428571429 11.7477272727273  9.49999999999999 11.7477272727273  C 5.15035714285715 11.7477272727273  1.48199999999999 10.5409090909091  0.355571428571415 8.89772727272727  C 0.123500000000006 8.55954545454546  0 8.74363636363635  0 8.895  C 0 9.04909090909091  0 12.1090909090909  0 12.1090909090909  C 0 14.5118181818182  4.25328571428572 16.4577272727273  9.50000000000001 16.4577272727273  C 14.7467142857143 16.4577272727273  19 14.5104545454545  19 12.1090909090909  C 19 12.1090909090909  19 9.04909090909091  19 8.895  Z M 19 3.59045454545454  C 19 1.6090909090909  14.7467142857143 0  9.50000000000001 0  C 4.25328571428572 0  0 1.6090909090909  0 3.59045454545454  L 0 5.30863636363637  C 0 7.40999999999999  4.25328571428572 9.11454545454545  9.50000000000001 9.11454545454545  C 14.7467142857143 9.11454545454545  19 7.40999999999999  19 5.30863636363637  L 19 3.59045454545454  Z " fill-rule="nonzero" fill="#ffc333" stroke="none" transform="matrix(1 0 0 1 1169 173 )" />
  </g>
</svg>